<svg version="1" xmlns="http://www.w3.org/2000/svg" width="1544" height="1544" viewBox="0 0 1158.000000 1158.000000"><path d="M229.8.5c-.2.2-3.9.5-8.3.9-13.5.9-25 2.1-25 2.6 0 .1-1.6.3-3.5.4-1.9.2-6 .8-9 1.4-3 .6-6.6 1.4-8 1.6-1.4.3-4.9 1.2-7.7 2-2.9.8-5.3 1.2-5.3.9 0-.3-.6-.1-1.3.5-.7.6-2.5 1.3-3.9 1.6-6.1 1.1-19.6 8.4-24.4 13.2-2.7 2.7-5.1 5.6-5.4 6.4-.3.8-.5 52.1-.5 114 0 109.9 0 112.7 2 117 1.1 2.5 2.2 4.7 2.5 5 .3.3 1.8 2.2 3.3 4.3 3.7 4.8 9.4 10.4 18.2 17.5 3.9 3.1 7.6 6.3 8.3 6.9.7.7 1.7 1.3 2.2 1.3.5 0 1.5.6 2.2 1.3.7.7 4.5 3.2 8.3 5.7 3.9 2.4 7.2 4.7 7.5 5.1.3.3 1.5.9 2.7 1.3 1.3.4 2.9 1.3 3.6 1.9 2.1 2 31.1 17 42.5 22 3.4 1.6 8.4 3.8 11 5 2.6 1.1 5.2 2.2 5.7 2.3.6.1 3.3 1.2 6 2.4 7.3 3.1 8.4 3.6 15 6.1 3.3 1.3 6.5 2.4 7 2.5.6.1 4.6 1.6 9 3.2s8.2 2.9 8.5 3c.3 0 1.2.3 2 .6 6 2 18.4 5.5 22.5 6.2 1.7.3 3.7.9 4.5 1.4.8.4 3.3 1.1 5.5 1.5 2.2.5 4.2.9 4.5 1 .8.2 8.4 1.8 9.8 2.1.8.1 4.6.8 8.5 1.4 4 .6 8.3 1.4 9.7 1.6 2.4.4 8.9 1 19.7 1.8 4.6.4 5.1.2 5.5-1.7.1-1.2.3-78.5.2-171.7 0-156-.2-169.7-1.7-172.5-3.4-6.2-7.2-9.4-17.2-14.4-3.7-1.9-18.1-6.9-21.5-7.6-.8-.2-3.3-.8-5.5-1.4-2.2-.5-5.6-1.2-7.5-1.5-1.9-.2-4.2-.7-5-1-.8-.3-3.5-.8-6-1-2.5-.3-5.5-.7-6.7-1-1.3-.3-6-.8-10.5-1.2-4.6-.3-9.9-.8-11.8-1.1-4-.5-61.7-1.3-62.2-.8zM884.8.5c-.2.2-4.8.6-10.3.9-5.5.4-11.3.9-13 1.1-1.6.3-5 .7-7.5 1-8.3 1-10.5 1.4-18 3-4.1.9-8.4 1.8-9.5 1.9-1.1.1-2.6.5-3.3 1-.7.4-1.6.5-1.9.2-.3-.3-1.1-.2-1.7.3-.6.4-3.5 1.6-6.5 2.5-10.1 3.2-18 7.7-23.5 13.1-2.9 3-5.6 6.5-5.8 7.9-.3 1.4-.6 142.4-.6 313.3-.1 171-.3 314.2-.6 318.3-.3 4.1-.8 11.3-1 16-.3 4.7-.9 10.7-1.2 13.5-.4 2.7-.8 6.6-.9 8.5-.2 1.9-.4 3.6-.5 3.7-.2.2-.4 1.6-.5 3.3-.1 1.6-.4 3.1-.5 3.2-.1.2-.4 1.9-.5 3.8-.4 3.7-.9 7.1-2 13-.4 1.9-.9 4.5-1 5.7-.2 1.2-.5 2.5-.8 3-.3.4-.8 3-1.1 5.7-.4 2.7-.9 5.3-1.2 5.8-.3.5-.7 1.8-1 3.1-.2 1.2-.6 3.2-.9 4.5-.3 1.2-.7 3.1-.9 4.2-.6 2.7-5.3 18-7.8 25.5-3.3 9.9-8.7 23.5-13.4 33.4-2.4 5.1-4.4 9.7-4.4 10.2s-.5.9-1 .9c-.6 0-.9.3-.8.7.1.5-2 4.8-4.7 9.6-6.5 11.5-6.6 11.7-9.2 15.4-1.3 1.7-2.3 3.4-2.3 3.8 0 .3-1.3 2.3-2.8 4.3-1.6 2-4.8 6.4-7.3 9.7-2.4 3.3-4.6 6.2-4.9 6.5-.3.3-2.1 2.5-4.1 5-7.2 8.9-21 23.3-28.9 30-2.8 2.5-6.8 6-8.6 7.8-1.9 1.7-3.7 3.2-4 3.2-.3 0-1.3.8-2.2 1.7-4.4 4.4-30.1 21.9-43.3 29.6-9.8 5.6-29.8 15.5-30.3 14.9-.3-.3-.6 0-.6.6 0 .7-.5 1.2-1.1 1.2-1.1 0-3.5 1-11.6 4.7-2.1 1-4 1.8-4.3 1.8-.5.2-3.6 1.4-9.5 3.8-1.6.6-3.2 1.2-3.5 1.3-.3 0-1.8.6-3.5 1.3-3.1 1.2-5.2 2-6 2.2-.2 0-3.5 1.2-7.2 2.5-3.7 1.4-7.7 2.7-8.8 2.9-1.1.3-3.1.9-4.5 1.4-3.7 1.4-26.3 7.7-38 10.5-3 .8-26.6 5.8-29 6.2-1.4.2-3.6.7-5 1-1.4.3-3.6.8-5 1-1.4.3-3.6.7-5 1-1.4.2-4.3.6-6.5.9-2.2.3-5.2.8-6.7 1.1-1.5.3-4.2.7-6 .9-3.5.5-16.6 2.4-20.8 3-1.4.3-5 .7-8 1-3 .3-7.3.8-9.5 1.1-2.2.4-6.2.8-9 .9-2.7.2-7.5.6-10.5 1l-11 1.1c-3 .2-8.6.6-12.5.9-6.7.5-13.9.9-35.4 2-5.7.3-10.7.8-11.2 1.1-.5.3-.9 0-.9-.6s-.5-.8-1.2-.4c-.6.4-7 .8-14.2 1-7.2.1-17.5.3-22.9.4-8.9.2-9.6.4-8.5 1.9 2.2 2.8 20.5 20.4 24.9 24.1 2.4 1.9 5.1 4.2 6 5.1.9.9 6.5 5.3 12.5 9.8 6 4.5 11.7 8.9 12.7 9.7.9.8 2 1.4 2.2 1.4.3 0 3.9 2.2 7.9 5 4 2.7 7.9 5 8.5 5 .6 0 1.1.4 1.1.9s.8 1.1 1.8 1.4c.9.4 4 2 6.7 3.6 10.3 6.2 36.9 18.9 49.5 23.6 4.1 1.5 8.9 3.3 10.5 4 2.8 1.2 7.3 2.8 8.5 3 .3 0 4.1 1.3 8.5 2.7 7.2 2.4 15.3 4.8 18 5.4.6.1 3 .7 5.5 1.4s5.4 1.4 6.5 1.6c1.1.2 5.7 1.2 10.3 2.3 4.6 1.2 9.3 2.1 10.6 2.1 1.2 0 2.6.3 2.9.7.4.3 1.9.8 3.4.9 2.7.3 14.1 2.1 19.3 3 1.4.3 4.5.7 7 1 2.5.3 5.9.7 7.5 1 1.7.2 6.4.7 10.5 1 6.9.5 11.5 1 11.5 1.4 0 .6 27.5 1.3 53.5 1.4 27.5.1 44.6-.5 61-2.1 2.5-.2 6.2-.5 8.2-.6 2.1-.1 3.8-.4 3.8-.7 0-.3 1.7-.6 3.8-.7 3.7-.2 8.1-.8 13.5-1.8 1.5-.2 5.3-.9 8.5-1.5 3.1-.6 6.8-1.2 8.2-1.5 1.4-.3 4.1-.8 6-1.1 3.7-.7 26.6-6.2 28.8-6.9.7-.3 1.4-.5 1.7-.5.3 0 2.3-.7 4.5-1.5 3.6-1.3 4.4-1.5 5.3-1.5.6 0 28.6-10 31.7-11.3 1.9-.8 3.7-1.5 4-1.4.3.1 1.9-.6 3.5-1.5 1.7-.8 6.8-3.3 11.5-5.4 4.7-2.1 9-4.2 9.5-4.5.6-.4 5-2.8 9.8-5.3 10.9-5.7 25.6-14.9 37.3-23.2 10.8-7.7 13.4-9.6 14.8-10.9.6-.6 4.5-3.7 8.6-7 7.8-6.3 36.4-34.4 43.7-43 9-10.7 12.9-15.7 20-25.5 2.6-3.6 5-6.7 5.3-7 .3-.3 1-1.4 1.7-2.5.6-1.1 3.6-5.7 6.5-10.3 6.5-10.2 9.2-14.5 12-19.7 1.2-2.2 2.8-4.9 3.4-6 .7-1.1 4.1-7.6 7.5-14.5 3.5-6.9 6.7-12.8 7.2-13.1.5-.3.8-1 .7-1.5-.1-1.3 3.3-8.8 4.5-9.6.5-.4.7-.8.3-.8-.4 0 .6-2.9 2.2-6.5s2.6-6.5 2.2-6.5c-.4 0-.2-.4.4-.8.5-.4 2.1-3.6 3.4-7.2 1.2-3.6 2.9-7.9 3.6-9.5 1.8-4.2 8.8-25.3 11.9-36 1.4-5 2.9-9.7 3.2-10.5.3-.8.7-2.2.8-3 .1-.8 1.2-5.1 2.4-9.5 1.3-4.4 2.5-8.9 2.7-10 .2-1.1.6-3 .8-4.3.3-1.3.7-3.1 1-4 .3-.9.7-2.8 1-4.2.3-1.4 1.2-5.7 2.1-9.5.9-3.9 1.8-8.5 2.1-10.4.2-1.9.9-5.5 1.5-8s1.3-6.6 1.6-9.1c.3-2.5 1-5.1 1.5-5.8.7-.8.7-1.2-.1-1.2-.7 0-.9-.4-.6-1 .8-1.2 1.4-4.3 1.9-9.5.3-2.2.7-5.4 1-7 .2-1.7.7-5 1-7.5.3-2.5.8-5.4 1-6.6.2-1.1.7-5.4 1.1-9.5.4-4.1.9-9.4 1.1-11.9.9-8.6 1.2-12.5 1.9-22 .3-5.2.9-12 1.2-15 .3-3 .8-146.1 1-318 .3-244.2.1-313.3-.8-316.3-.7-2.2-3.1-5.4-6-8-6.8-6.1-7.7-6.7-9.1-6.7-.8 0-2.3-.6-3.4-1.4-4.9-3.4-32.1-10.9-43.6-12-2.5-.2-5-.6-5.5-.9-.4-.3-4.9-.8-9.8-1.2-5-.4-10.6-.9-12.5-1.1-4-.5-54.8-1.3-55.2-.9zM127.2 599c.1 24.7.6 45 .9 45 .4 0 .3 1.6-.1 3.4-.4 1.9-.5 3.7-.3 4 .3.3.7 4.9.9 10.3.5 14.2 1.3 29.7 2 38.3.3 4.1.7 9.7.8 12.5.4 5.4 1.5 17.8 2.2 23.5.2 1.9.6 6.2 1 9.5.3 3.3.8 7.1 1 8.5.3 1.4.7 4.5 1 7 .3 2.5.7 5.6 1 7 .2 1.4.7 5 1 8 .3 3 1.1 6.1 1.6 6.7.6.7.7 1.3.2 1.3-3.9.2 18.4 7.3 23.1 7.5.6 0 1.2.3 1.5.6.3.4 2.1 1 4 1.3 7.1 1.2 9.6 1.6 12 2.2 1.4.3 3.6.8 5 1 1.4.2 3.4.6 4.6.9 1.2.3 3.7.7 5.8 1 2 .3 5.3.7 7.4 1.1 2 .3 6 .7 8.7 1 2.8.3 6.6.8 8.5 1.1 5.2.8 61 1.1 61 .3 0-.3 1.7-.7 3.8-.7 2-.1 5.1-.4 6.7-.7 1.7-.4 4.6-.9 6.5-1.2 1.9-.3 6.2-1.2 9.5-2 3.3-.9 7.1-1.8 8.4-2 7.3-1.4 25.3-9.7 34.1-15.8 8.6-5.8 22.7-21.7 23.4-26.1.1-.7.7-1.9 1.3-2.6 1-1.4 3.9-9.6 4.9-14 3.2-15.1 2.9-31.5-.9-46.4-2.3-8.7-8.3-20.5-15.4-30.2-5.6-7.7-19-21.3-23.5-24.1-1.6-.9-2.8-2-2.8-2.4 0-.4-.5-.8-1-.8-1.2 0-3.2-1.5-5.8-4.3-.9-.9-2-1.7-2.3-1.7-.4 0-4.5-2.3-9-5.2-9.5-5.8-31.2-16.8-33.3-16.8-.8 0-1.6-.3-1.8-.8-.1-.4-4.1-2.2-8.8-4.1-4.7-1.8-9.4-3.7-10.5-4.1-2.5-1.1-11.8-4.5-12.5-4.6-.3 0-1.2-.4-2-.7-4.9-2-38.9-12.6-49-15.2-.8-.2-4-1.1-7-2-3-.9-6.6-1.8-7.9-2.1-1.4-.3-2.8-.7-3.3-1-.5-.3-2.1-.8-3.6-1.1-4.1-.8-4.2-.8-10.7-2.6-3.3-1-7.8-2.2-10-2.8-2.2-.6-4.7-1.4-5.5-1.7-.8-.3-2.4-.7-3.5-.9-1.1-.2-3.1-.8-4.5-1.3s-3.4-1.1-4.5-1.3c-1.1-.1-2.4-.5-3-.8-.9-.6-6.1-2.1-7.7-2.3-.3-.1-1-.4-1.4-.9-.4-.4-1.2-.7-1.7-.7s-.8 17.7-.5 45z"/></svg>